<svg viewBox="0 0 280 280" xmlns="http://www.w3.org/2000/svg" fill="none">
  <!-- Dashed connecting lines from center to corners -->
  <line x1="140" y1="140" x2="60" y2="62" stroke="#C9A84C" stroke-width="1.5" stroke-dasharray="4 4" opacity="0.25"/>
  <line x1="140" y1="140" x2="220" y2="62" stroke="#C9A84C" stroke-width="1.5" stroke-dasharray="4 4" opacity="0.25"/>
  <line x1="140" y1="140" x2="60" y2="218" stroke="#C9A84C" stroke-width="1.5" stroke-dasharray="4 4" opacity="0.25"/>
  <line x1="140" y1="140" x2="220" y2="218" stroke="#C9A84C" stroke-width="1.5" stroke-dasharray="4 4" opacity="0.25"/>

  <!-- Center: Tajali circle with 8-pointed star -->
  <circle cx="140" cy="140" r="46" fill="#1B4332" stroke="#C9A84C" stroke-width="1.5"/>
  <circle cx="140" cy="140" r="40" fill="#0D2218" stroke="#C9A84C" stroke-width="0.5" opacity="0.5"/>
  <!-- Star logo at center -->
  <svg x="125" y="126" width="30" height="28.5" viewBox="0 0 30 28.5">
    <path d="M5.7375 28.5L8.175 17.9625L0 10.875L10.8 9.9375L15 0L19.2 9.9375L30 10.875L21.825 17.9625L24.2625 28.5L15 22.9125L5.7375 28.5Z" fill="#C9A84C"/>
  </svg>

  <!-- Top-left: Prayer icon card -->
  <circle cx="60" cy="62" r="32" fill="#0D2218" fill-opacity="0.85" stroke="#C9A84C" stroke-width="1"/>
  <svg x="44" y="51" width="32" height="22" viewBox="0 0 24 20">
    <path d="M1 20V7.725C0.7 7.54167 0.458333 7.30417 0.275 7.0125C0.0916667 6.72083 0 6.38333 0 6C0 5.61667 0.2 5.15 0.6 4.6C1 4.05 1.46667 3.51667 2 3C2.53333 3.51667 3 4.05 3.4 4.6C3.8 5.15 4 5.61667 4 6C4 6.38333 3.90833 6.72083 3.725 7.0125C3.54167 7.30417 3.3 7.54167 3 7.725V12H5V10C5 9.58333 5.13333 9.18333 5.4 8.8C5.66667 8.41667 6.05 8.16667 6.55 8.05C6.36667 7.76667 6.22917 7.45833 6.1375 7.125C6.04583 6.79167 6 6.45 6 6.1C6 5.43333 6.15833 4.81667 6.475 4.25C6.79167 3.68333 7.21667 3.21667 7.75 2.85L12 0L16.25 2.85C16.7833 3.21667 17.2083 3.68333 17.525 4.25C17.8417 4.81667 18 5.43333 18 6.1C18 6.45 17.9542 6.79167 17.8625 7.125C17.7708 7.45833 17.6333 7.76667 17.45 8.05C17.95 8.16667 18.3333 8.41667 18.6 8.8C18.8667 9.18333 19 9.58333 19 10V12H21V7.725C20.7 7.54167 20.4583 7.30417 20.275 7.0125C20.0917 6.72083 20 6.38333 20 6C20 5.61667 20.2 5.15 20.6 4.6C21 4.05 21.4667 3.51667 22 3C22.5333 3.51667 23 4.05 23.4 4.6C23.8 5.15 24 5.61667 24 6C24 6.38333 23.9083 6.72083 23.725 7.0125C23.5417 7.30417 23.3 7.54167 23 7.725V20H13V16C13 15.7167 12.9042 15.4792 12.7125 15.2875C12.5208 15.0958 12.2833 15 12 15C11.7167 15 11.4792 15.0958 11.2875 15.2875C11.0958 15.4792 11 15.7167 11 16V20H1ZM9.9 8H14.1C14.6333 8 15.0833 7.81667 15.45 7.45C15.8167 7.08333 16 6.63333 16 6.1C16 5.76667 15.925 5.4625 15.775 5.1875C15.625 4.9125 15.4167 4.68333 15.15 4.5L12 2.4L8.85 4.5C8.58333 4.68333 8.375 4.9125 8.225 5.1875C8.075 5.4625 8 5.76667 8 6.1C8 6.63333 8.18333 7.08333 8.55 7.45C8.91667 7.81667 9.36667 8 9.9 8ZM3 18H9V16C9 15.1667 9.29167 14.4583 9.875 13.875C10.4583 13.2917 11.1667 13 12 13C12.8333 13 13.5417 13.2917 14.125 13.875C14.7083 14.4583 15 15.1667 15 16V18H21V14H17V10H7V14H3V18Z" fill="#C9A84C"/>
  </svg>

  <!-- Top-right: Quran icon card -->
  <circle cx="220" cy="62" r="32" fill="#0D2218" fill-opacity="0.85" stroke="#C9A84C" stroke-width="1"/>
  <svg x="204" y="53" width="32" height="18" viewBox="0 0 22 16">
    <path d="M13 5.9V4.2C13.55 3.96667 14.1125 3.79167 14.6875 3.675C15.2625 3.55833 15.8667 3.5 16.5 3.5C16.9333 3.5 17.3583 3.53333 17.775 3.6C18.1917 3.66667 18.6 3.75 19 3.85V5.45C18.6 5.3 18.1958 5.1875 17.7875 5.1125C17.3792 5.0375 16.95 5 16.5 5C15.8667 5 15.2583 5.07917 14.675 5.2375C14.0917 5.39583 13.5333 5.61667 13 5.9ZM13 11.4V9.7C13.55 9.46667 14.1125 9.29167 14.6875 9.175C15.2625 9.05833 15.8667 9 16.5 9C16.9333 9 17.3583 9.03333 17.775 9.1C18.1917 9.16667 18.6 9.25 19 9.35V10.95C18.6 10.8 18.1958 10.6875 17.7875 10.6125C17.3792 10.5375 16.95 10.5 16.5 10.5C15.8667 10.5 15.2583 10.575 14.675 10.725C14.0917 10.875 13.5333 11.1 13 11.4ZM13 8.65V6.95C13.55 6.71667 14.1125 6.54167 14.6875 6.425C15.2625 6.30833 15.8667 6.25 16.5 6.25C16.9333 6.25 17.3583 6.28333 17.775 6.35C18.1917 6.41667 18.6 6.5 19 6.6V8.2C18.6 8.05 18.1958 7.9375 17.7875 7.8625C17.3792 7.7875 16.95 7.75 16.5 7.75C15.8667 7.75 15.2583 7.82917 14.675 7.9875C14.0917 8.14583 13.5333 8.36667 13 8.65ZM5.5 12C6.28333 12 7.04583 12.0875 7.7875 12.2625C8.52917 12.4375 9.26667 12.7 10 13.05V3.2C9.31667 2.8 8.59167 2.5 7.825 2.3C7.05833 2.1 6.28333 2 5.5 2C4.9 2 4.30417 2.05833 3.7125 2.175C3.12083 2.29167 2.55 2.46667 2 2.7V12.6C2.58333 12.4 3.1625 12.25 3.7375 12.15C4.3125 12.05 4.9 12 5.5 12ZM12 13.05C12.7333 12.7 13.4708 12.4375 14.2125 12.2625C14.9542 12.0875 15.7167 12 16.5 12C17.1 12 17.6875 12.05 18.2625 12.15C18.8375 12.25 19.4167 12.4 20 12.6V2.7C19.45 2.46667 18.8792 2.29167 18.2875 2.175C17.6958 2.05833 17.1 2 16.5 2C15.7167 2 14.9417 2.1 14.175 2.3C13.4083 2.5 12.6833 2.8 12 3.2V13.05ZM11 16C10.2 15.3667 9.33333 14.875 8.4 14.525C7.46667 14.175 6.5 14 5.5 14C4.8 14 4.1125 14.0917 3.4375 14.275C2.7625 14.4583 2.11667 14.7167 1.5 15.05C1.15 15.2333 0.8125 15.225 0.4875 15.025C0.1625 14.825 0 14.5333 0 14.15V2.1C0 1.91667 0.0458333 1.74167 0.1375 1.575C0.229167 1.40833 0.366667 1.28333 0.55 1.2C1.31667 0.8 2.11667 0.5 2.95 0.3C3.78333 0.1 4.63333 0 5.5 0C6.46667 0 7.4125 0.125 8.3375 0.375C9.2625 0.625 10.15 1 11 1.5C11.85 1 12.7375 0.625 13.6625 0.375C14.5875 0.125 15.5333 0 16.5 0C17.3667 0 18.2167 0.1 19.05 0.3C19.8833 0.5 20.6833 0.8 21.45 1.2C21.6333 1.28333 21.7708 1.40833 21.8625 1.575C21.9542 1.74167 22 1.91667 22 2.1V14.15C22 14.5333 21.8375 14.825 21.5125 15.025C21.1875 15.225 20.85 15.2333 20.5 15.05C19.8833 14.7167 19.2375 14.4583 18.5625 14.275C17.8875 14.0917 17.2 14 16.5 14C15.5 14 14.5333 14.175 13.6 14.525C12.6667 14.875 11.8 15.3667 11 16Z" fill="#C9A84C"/>
  </svg>

  <!-- Bottom-left: Adhkar icon card -->
  <circle cx="60" cy="218" r="32" fill="#0D2218" fill-opacity="0.85" stroke="#C9A84C" stroke-width="1"/>
  <svg x="44" y="207" width="32" height="22" viewBox="0 0 22 22">
    <path d="M18 8L16.75 5.25L14 4L16.75 2.75L18 0L19.25 2.75L22 4L19.25 5.25L18 8ZM18 22L16.75 19.25L14 18L16.75 16.75L18 14L19.25 16.75L22 18L19.25 19.25L18 22ZM8 19L5.5 13.5L0 11L5.5 8.5L8 3L10.5 8.5L16 11L10.5 13.5L8 19ZM8 14.15L9 12L11.15 11L9 10L8 7.85L7 10L4.85 11L7 12L8 14.15Z" fill="#C9A84C"/>
  </svg>

  <!-- Bottom-right: Qibla compass icon card -->
  <circle cx="220" cy="218" r="32" fill="#0D2218" fill-opacity="0.85" stroke="#C9A84C" stroke-width="1"/>
  <svg x="205" y="208" width="30" height="20" viewBox="0 0 20 20">
    <path d="M5.5 14.5L12.5 12.5L14.5 5.5L7.5 7.5L5.5 14.5ZM10 11.5C9.58333 11.5 9.22917 11.3542 8.9375 11.0625C8.64583 10.7708 8.5 10.4167 8.5 10C8.5 9.58333 8.64583 9.22917 8.9375 8.9375C9.22917 8.64583 9.58333 8.5 10 8.5C10.4167 8.5 10.7708 8.64583 11.0625 8.9375C11.3542 9.22917 11.5 9.58333 11.5 10C11.5 10.4167 11.3542 10.7708 11.0625 11.0625C10.7708 11.3542 10.4167 11.5 10 11.5ZM10 20C8.61667 20 7.31667 19.7375 6.1 19.2125C4.88333 18.6875 3.825 17.975 2.925 17.075C2.025 16.175 1.3125 15.1167 0.7875 13.9C0.2625 12.6833 0 11.3833 0 10C0 8.61667 0.2625 7.31667 0.7875 6.1C1.3125 4.88333 2.025 3.825 2.925 2.925C3.825 2.025 4.88333 1.3125 6.1 0.7875C7.31667 0.2625 8.61667 0 10 0C11.3833 0 12.6833 0.2625 13.9 0.7875C15.1167 1.3125 16.175 2.025 17.075 2.925C17.975 3.825 18.6875 4.88333 19.2125 6.1C19.7375 7.31667 20 8.61667 20 10C20 11.3833 19.7375 12.6833 19.2125 13.9C18.6875 15.1167 17.975 16.175 17.075 17.075C16.175 17.975 15.1167 18.6875 13.9 19.2125C12.6833 19.7375 11.3833 20 10 20ZM10 18C12.2167 18 14.1042 17.2208 15.6625 15.6625C17.2208 14.1042 18 12.2167 18 10C18 7.78333 17.2208 5.89583 15.6625 4.3375C14.1042 2.77917 12.2167 2 10 2C7.78333 2 5.89583 2.77917 4.3375 4.3375C2.77917 5.89583 2 7.78333 2 10C2 12.2167 2.77917 14.1042 4.3375 15.6625C5.89583 17.2208 7.78333 18 10 18Z" fill="#C9A84C"/>
  </svg>
</svg>
